<svg width="33" height="22" viewBox="0 0 33 22" fill="none" xmlns="http://www.w3.org/2000/svg">
<g opacity="0.9">
<path d="M10.7685 20.6361C10.8067 20.6498 10.8476 20.6634 10.8885 20.6797C11.1773 20.7779 11.537 20.8896 11.8123 20.9741C12.0984 21.0558 12.4827 21.1457 12.7715 21.2139C9.01355 20.2955 5.80606 18.238 3.2417 15.0932L3.96386 15.9843C4.05379 16.0852 4.13282 16.1751 4.20913 16.2568C4.47619 16.5348 4.79231 16.8564 5.11387 17.167C5.31281 17.3496 5.5608 17.5676 5.90417 17.8728C6.0813 18.0145 6.28841 18.1726 6.50097 18.3307C8.32409 19.6742 9.56948 20.1701 10.7713 20.6389L10.7685 20.6361Z" fill="#262626"/>
<path d="M1.09689 11.2617C4.08364 18.3144 11.5642 21.015 14.2076 21.4592C14.2212 21.4592 14.2321 21.462 14.2457 21.4647C14.3847 21.481 14.5591 21.5001 14.6954 21.5137L14.9733 21.5383C14.9733 21.5383 14.9842 21.5383 14.9869 21.5383C13.4282 21.3938 2.70745 18.2299 0.292969 8.49845C0.32022 8.64288 0.344747 8.78459 0.371998 8.9154C0.551858 9.59396 0.827097 10.4824 1.05873 11.1582C1.07236 11.1936 1.08599 11.2263 1.09689 11.2617Z" fill="#262626"/>
<path d="M15.9246 21.5874C15.9873 21.5874 16.0472 21.5901 16.1099 21.5901H16.1372C16.1372 21.5901 16.159 21.5901 16.1671 21.5901C16.238 21.5901 16.3061 21.5901 16.377 21.5901C16.4369 21.5901 16.4969 21.5901 16.5487 21.5901C16.5514 21.5901 16.5541 21.5901 16.5568 21.5901C15.3196 21.5683 -2.38292 14.859 0.478486 1.22783C0.478486 1.22783 0.478486 1.22783 0.478486 1.23055C0.380381 1.6148 0.285001 2.13258 0.203246 2.51955C0.124217 3.01552 0.0588136 3.68319 0.00431072 4.18189C-0.28728 16.4096 14.3059 21.432 15.9246 21.5874Z" fill="#262626"/>
<path d="M2.07004 -2.71288C-5.12161 11.1527 15.0227 20.9414 17.4317 21.5491C17.448 21.5491 17.4644 21.5491 17.4807 21.5464L17.587 21.5382C17.6034 21.5382 17.6197 21.5355 17.6388 21.5327C17.7614 21.5218 17.9086 21.5055 18.0339 21.4946C18.0503 21.4946 18.0666 21.4919 18.0803 21.4891C15.227 19.3199 11.7552 18.1372 9.00553 15.8045C7.65931 14.6626 4.50632 11.9893 2.66412 8.41389C-1.023 1.26038 2.25808 -3.30151 3.86864 -5.26361C3.81141 -5.19821 3.75691 -5.13281 3.7024 -5.07013L3.42989 -4.74584C3.00477 -4.15993 2.46791 -3.35601 2.08367 -2.73741C2.07822 -2.72923 2.07549 -2.72106 2.07004 -2.71288Z" fill="#262626"/>
<path d="M12.5211 -10.5613C12.5211 -10.5613 12.5402 -10.5668 12.5511 -10.5695C12.5266 -10.564 12.4966 -10.5586 12.4748 -10.5531C12.2949 -10.5123 12.0606 -10.4496 11.8834 -10.4005C11.5182 -10.2997 11.0359 -10.1498 10.6816 -10.0163C10.4636 -9.93454 10.1748 -9.82553 9.96219 -9.7356C9.70603 -9.62659 9.37083 -9.46854 9.1174 -9.35135C8.85851 -9.23145 8.52331 -9.05431 8.27805 -8.90988C7.98919 -8.74092 7.63219 -8.52019 7.31608 -8.3158C4.05953 -6.07573 1.48972 -2.48127 1.84399 1.57102C2.68333 11.1308 13.5103 17.6875 17.5844 20.1565C18.5255 20.727 19.0233 21.123 19.0778 21.3447C19.0778 21.3447 19.0969 21.3419 19.105 21.3392C19.3285 21.2983 19.6092 21.2384 19.8327 21.1921C19.8408 21.1921 19.849 21.1893 19.8572 21.1866C19.9362 21.1594 19.9934 21.0449 20.0479 20.9795C19.8626 20.6225 19.5002 20.3663 17.5408 19.0828C12.4993 15.7799 7.42508 11.9811 4.46285 6.59891C-2.22193 -5.5525 10.7416 -11.8394 16.2954 -10.3597C15.219 -10.7766 13.9082 -10.8229 12.5238 -10.564L12.5211 -10.5613Z" fill="#262626"/>
<path d="M18.1565 17.7257C21.225 19.8949 21.9553 20.41 20.9852 20.8896C20.9961 20.8869 21.007 20.8842 21.0152 20.8814C21.1651 20.8351 21.334 20.7779 21.5002 20.7234C21.6147 20.6852 21.7264 20.6443 21.8382 20.6035C23.2116 19.9658 22.0153 19.0828 19.1539 16.9763C15.99 14.6463 12.0494 11.7467 8.70842 7.50641C-1.1566 -5.0129 9.37336 -11.2099 16.2898 -10.3569C8.43046 -12.0601 -8.48179 -1.09414 18.1538 17.7257H18.1565Z" fill="#262626"/>
<path d="M19.9606 15.2894C23.5387 18.0336 24.8795 19.061 23.1027 20.0856C23.1163 20.0802 23.1299 20.072 23.1435 20.0666C23.4406 19.9249 23.8112 19.7286 24.0973 19.5842C25.4817 18.7748 24.9285 17.8347 24.1246 16.9408C20.759 13.1992 16.2898 10.7193 12.8425 7.07036C1.74844 -4.67501 9.19081 -10.5177 16.2925 -10.3542C9.05455 -11.0137 -3.86808 -2.97998 19.9606 15.2921V15.2894Z" fill="#262626"/>
<path d="M22.7265 13.0195C26.1357 15.7501 27.3511 17.2189 25.5307 18.6959C25.8414 18.4779 26.2365 18.1673 26.5472 17.9302C26.7025 17.8021 26.866 17.6631 27.0214 17.5241C28.4357 16.2297 27.6427 15.5293 18.1265 7.14678C4.33181 -5.00191 10.5479 -9.29129 15.0443 -10.1879C10.9675 -9.42755 -0.401769 -5.51152 22.7265 13.0195Z" fill="#262626"/>
<path d="M22.0915 7.67276C27.7462 12.2237 29.8691 14.3058 28.0296 16.5676C28.0432 16.554 28.0541 16.5431 28.065 16.5295C28.3539 16.2188 28.7027 15.8073 28.9752 15.4939C28.9807 15.4857 28.9861 15.4803 28.9916 15.4721C30.6021 13.3629 29.0624 11.1419 22.424 5.98316C5.10298 -7.4736 14.2785 -9.98618 16.2951 -10.3541C14.8263 -10.1688 2.51136 -8.08403 22.0942 7.67276H22.0915Z" fill="#262626"/>
<path d="M23.2608 4.03185C29.6594 8.81175 31.4198 11.2562 30.2235 13.7007C30.2726 13.6189 30.3189 13.5399 30.3652 13.4609L30.4088 13.3845C30.4415 13.3273 30.4715 13.2755 30.5015 13.2238L30.8666 12.5207C30.9102 12.4308 30.9538 12.3408 30.9974 12.2536C32.4254 8.97799 27.0133 5.03743 23.4215 2.42402C11.7171 -6.09206 13.0851 -9.22325 16.2926 -10.3515C13.5538 -9.63747 8.74665 -6.80331 23.2608 4.03731V4.03185Z" fill="#262626"/>
<path d="M23.5712 0.320229C29.1577 4.25534 32.5042 6.88782 31.8093 10.1716C31.842 10.0599 31.8774 9.94817 31.9074 9.83916C32.0191 9.43039 32.1309 8.96984 32.2208 8.60195C32.7004 5.32905 29.3212 2.83281 23.7701 -0.963312C20.1021 -3.47317 13.2756 -8.14407 16.2923 -10.3569C11.5615 -8.14134 20.6008 -1.77268 23.5712 0.320229Z" fill="#262626"/>
<path d="M23.9831 -2.57379C30.2781 1.5112 32.4174 3.3643 32.5318 6.17665C32.5346 6.12215 32.54 6.06492 32.5427 6.01041L32.5618 5.32368L32.5455 4.65874C32.5427 4.58244 32.54 4.50886 32.5346 4.43255C32.292 1.48122 28.3596 -0.952325 23.3863 -4.02629C19.8872 -6.18733 15.9221 -8.63996 16.2954 -10.3541C14.6576 -8.62088 20.2714 -4.98009 23.9858 -2.57106L23.9831 -2.57379Z" fill="#262626"/>
<path d="M23.5741 -5.18175C29.3732 -1.88978 31.556 -0.290114 32.2509 2.12164C32.1637 1.70469 32.022 1.17601 31.9048 0.729085C31.8776 0.636431 31.8503 0.546507 31.8231 0.453852C30.8802 -1.99878 27.7217 -3.75922 22.236 -6.64243C18.3581 -8.68356 17.08 -9.48202 16.2925 -10.3541C16.7449 -9.0569 19.609 -7.42999 23.5741 -5.17902V-5.18175Z" fill="#262626"/>
</g>
</svg>
